<svg width="127" height="127" viewBox="0 0 127 127" fill="none" xmlns="http://www.w3.org/2000/svg">
<path d="M57.208 94.9583H69.7913V57.2083H57.208V94.9583ZM63.4997 44.625C65.2823 44.625 66.7776 44.021 67.9856 42.813C69.1936 41.605 69.7955 40.1118 69.7913 38.3333C69.7913 36.5507 69.1873 35.0554 67.9793 33.8474C66.7713 32.6394 65.2781 32.0375 63.4997 32.0417C61.717 32.0417 60.2217 32.6457 59.0137 33.8537C57.8057 35.0617 57.2038 36.5549 57.208 38.3333C57.208 40.116 57.812 41.6113 59.02 42.8193C60.228 44.0273 61.7212 44.6292 63.4997 44.625ZM63.4997 126.417C54.7962 126.417 46.617 124.764 38.9622 121.459C31.3073 118.154 24.6486 113.672 18.9861 108.014C13.3236 102.351 8.84187 95.6924 5.54084 88.0375C2.23981 80.3826 0.587202 72.2035 0.583008 63.5C0.583008 54.7965 2.23562 46.6174 5.54084 38.9625C8.84606 31.3076 13.3278 24.649 18.9861 18.9865C24.6486 13.324 31.3073 8.84221 38.9622 5.54118C46.617 2.24015 54.7962 0.587538 63.4997 0.583344C72.2031 0.583344 80.3823 2.23596 88.0372 5.54118C95.692 8.8464 102.351 13.3282 108.013 18.9865C113.676 24.649 118.16 31.3076 121.465 38.9625C124.77 46.6174 126.421 54.7965 126.416 63.5C126.416 72.2035 124.764 80.3826 121.459 88.0375C118.153 95.6924 113.672 102.351 108.013 108.014C102.351 113.676 95.692 118.16 88.0372 121.465C80.3823 124.77 72.2031 126.421 63.4997 126.417Z" fill="#00B2A9"/>
</svg>
