<svg width="62" height="64" viewBox="0 0 62 64" fill="none" xmlns="http://www.w3.org/2000/svg">
<path fill-rule="evenodd" clip-rule="evenodd" d="M31 63.8125C47.9137 63.8125 61.625 50.1012 61.625 33.1875C61.625 16.2738 47.9137 2.5625 31 2.5625C14.0863 2.5625 0.375 16.2738 0.375 33.1875C0.375 38.6801 1.82094 43.8349 4.3529 48.2922L0.375 63.8125L16.3763 60.1021C20.7218 62.4681 25.7038 63.8125 31 63.8125ZM31 59.1011C45.3117 59.1011 56.9136 47.4992 56.9136 33.1875C56.9136 18.876 45.3117 7.27405 31 7.27405C16.6884 7.27405 5.08655 18.876 5.08655 33.1875C5.08655 38.7133 6.81609 43.8352 9.7634 48.0411L7.44231 56.7451L16.2998 54.5307C20.4768 57.4132 25.5413 59.1011 31 59.1011Z" fill="#BFC8D0"/>
<path d="M57.25 31C57.25 45.4974 45.4974 57.25 31 57.25C25.4704 57.25 20.3401 55.5402 16.1089 52.6206L7.13637 54.8637L9.4876 46.0465C6.50201 41.7859 4.75 36.5976 4.75 31C4.75 16.5025 16.5025 4.75 31 4.75C45.4974 4.75 57.25 16.5025 57.25 31Z" fill="url(#paint0_linear_40_924)"/>
<path fill-rule="evenodd" clip-rule="evenodd" d="M31 61.625C47.9137 61.625 61.625 47.9137 61.625 31C61.625 14.0863 47.9137 0.375 31 0.375C14.0863 0.375 0.375 14.0863 0.375 31C0.375 36.4926 1.82094 41.6474 4.3529 46.1047L0.375 61.625L16.3763 57.9146C20.7218 60.2806 25.7038 61.625 31 61.625ZM31 56.9136C45.3117 56.9136 56.9136 45.3117 56.9136 31C56.9136 16.6884 45.3117 5.08655 31 5.08655C16.6884 5.08655 5.08655 16.6884 5.08655 31C5.08655 36.5258 6.81609 41.6477 9.7634 45.8536L7.44231 54.5576L16.2998 52.3432C20.4768 55.2257 25.5413 56.9136 31 56.9136Z" fill="white"/>
<path d="M23.3438 16.781C22.6157 15.3185 21.4986 15.448 20.3703 15.448C18.3536 15.448 15.209 17.8636 15.209 22.3594C15.209 26.0438 16.8325 30.0769 22.3034 36.1102C27.5831 41.9329 34.5206 44.9449 40.2798 44.8423C46.0391 44.7399 47.224 39.7837 47.224 38.11C47.224 37.3682 46.7636 36.9981 46.4466 36.8975C44.484 35.9556 40.8641 34.2005 40.0405 33.8709C39.2169 33.5412 38.7868 33.9873 38.5195 34.2298C37.7727 34.9414 36.2922 37.0392 35.7852 37.5111C35.2783 37.9829 34.5225 37.7441 34.208 37.5658C33.0506 37.1014 29.9126 35.7055 27.4114 33.2807C24.3178 30.2821 24.1363 29.2502 23.5535 28.3319C23.0874 27.5971 23.4295 27.1465 23.6001 26.9494C24.2667 26.1805 25.1869 24.9931 25.5997 24.4032C26.0123 23.813 25.6848 22.9172 25.4882 22.3594C24.6427 19.9597 23.9263 17.9509 23.3438 16.781Z" fill="white"/>
<defs>
<linearGradient id="paint0_linear_40_924" x1="57.7969" y1="8.30468" x2="-1.49592" y2="61.7363" gradientUnits="userSpaceOnUse">
<stop stop-color="#5BD066"/>
<stop offset="1" stop-color="#27B43E"/>
</linearGradient>
</defs>
</svg>
